<svg width="100" height="128" viewBox="0 0 100 128" fill="none" xmlns="http://www.w3.org/2000/svg">
<mask id="mask0_122_1786" style="mask-type:luminance" maskUnits="userSpaceOnUse" x="1" y="33" width="88" height="49">
<path d="M1.80884 33.2983H88.4414V81.9602H1.80884V33.2983Z" fill="white"/>
</mask>
<g mask="url(#mask0_122_1786)">
<path d="M87.5663 81.9654C88.0482 81.9654 88.4382 81.5117 88.4382 80.9546V78.1526C88.4382 77.5947 88.0482 77.1425 87.5663 77.1425H62.9251C76.7942 69.5214 86.5062 53.2002 86.847 34.3077C86.847 33.7498 86.457 33.2976 85.9751 33.2976H83.5605C83.0793 33.2976 82.6899 33.7498 82.6899 34.3077C82.1748 57.8539 65.5433 76.878 45.1235 76.878C24.7032 76.878 8.07097 57.8539 7.55651 34.3077C7.55651 33.7498 7.16653 33.2976 6.68591 33.2976H4.27067C3.78941 33.2976 3.39942 33.7498 3.39942 34.3077C3.7409 53.2002 13.4523 69.5214 27.322 77.1425H2.68009C2.19819 77.1425 1.80884 77.5947 1.80884 78.1526V80.9546C1.80884 81.5117 2.19819 81.9654 2.68009 81.9654H87.5663Z" fill="#231F20"/>
</g>
<path d="M79.3064 45.542C79.3064 46.8654 63.961 47.9383 45.0316 47.9383C26.1022 47.9383 10.7574 46.8654 10.7574 45.542C10.7574 44.2186 26.1022 43.1465 45.0316 43.1465C63.961 43.1465 79.3064 44.2186 79.3064 45.542Z" fill="#231F20"/>
<mask id="mask1_122_1786" style="mask-type:luminance" maskUnits="userSpaceOnUse" x="83" y="38" width="16" height="20">
<path d="M83.0339 38.0652H98.1279V57.2592H83.0339V38.0652Z" fill="white"/>
</mask>
<g mask="url(#mask1_122_1786)">
<path d="M83.0754 57.2533C88.6552 55.8346 93.9287 54.1528 97.0224 49.1393C101.174 42.4129 92.6215 39.4277 88.1612 38.0667L87.3659 41.5758C90.219 42.4477 96.1575 44.1856 93.5004 48.4905C91.5205 51.6996 87.5549 52.3388 83.9843 53.2469L83.0754 57.2533Z" fill="#231F20"/>
</g>
</svg>
