<svg width="32" height="33" viewBox="0 0 32 33" fill="none" xmlns="http://www.w3.org/2000/svg">
<path d="M10.4 3.03833H21.6C25.8666 3.03833 29.3333 6.505 29.3333 10.7717V21.9717C29.3333 24.0227 28.5185 25.9897 27.0683 27.44C25.618 28.8902 23.651 29.705 21.6 29.705H10.4C6.13329 29.705 2.66663 26.2383 2.66663 21.9717V10.7717C2.66663 8.72066 3.48139 6.75365 4.93167 5.30337C6.38195 3.85309 8.34895 3.03833 10.4 3.03833ZM10.1333 5.705C8.86025 5.705 7.63935 6.21071 6.73918 7.11088C5.83901 8.01106 5.33329 9.23196 5.33329 10.505V22.2383C5.33329 24.8917 7.47996 27.0383 10.1333 27.0383H21.8666C23.1397 27.0383 24.3606 26.5326 25.2607 25.6324C26.1609 24.7323 26.6666 23.5114 26.6666 22.2383V10.505C26.6666 7.85166 24.52 5.705 21.8666 5.705H10.1333ZM23 7.705C23.442 7.705 23.8659 7.88059 24.1785 8.19315C24.491 8.50571 24.6666 8.92964 24.6666 9.37166C24.6666 9.81369 24.491 10.2376 24.1785 10.5502C23.8659 10.8627 23.442 11.0383 23 11.0383C22.5579 11.0383 22.134 10.8627 21.8214 10.5502C21.5089 10.2376 21.3333 9.81369 21.3333 9.37166C21.3333 8.92964 21.5089 8.50571 21.8214 8.19315C22.134 7.88059 22.5579 7.705 23 7.705ZM16 9.705C17.7681 9.705 19.4638 10.4074 20.714 11.6576C21.9642 12.9079 22.6666 14.6036 22.6666 16.3717C22.6666 18.1398 21.9642 19.8355 20.714 21.0857C19.4638 22.336 17.7681 23.0383 16 23.0383C14.2318 23.0383 12.5362 22.336 11.2859 21.0857C10.0357 19.8355 9.33329 18.1398 9.33329 16.3717C9.33329 14.6036 10.0357 12.9079 11.2859 11.6576C12.5362 10.4074 14.2318 9.705 16 9.705ZM16 12.3717C14.9391 12.3717 13.9217 12.7931 13.1715 13.5432C12.4214 14.2934 12 15.3108 12 16.3717C12 17.4325 12.4214 18.4499 13.1715 19.2001C13.9217 19.9502 14.9391 20.3717 16 20.3717C17.0608 20.3717 18.0782 19.9502 18.8284 19.2001C19.5785 18.4499 20 17.4325 20 16.3717C20 15.3108 19.5785 14.2934 18.8284 13.5432C18.0782 12.7931 17.0608 12.3717 16 12.3717Z" fill="#6A6F4C"/>
</svg>
