<svg width="28" height="23" viewBox="0 0 28 23" fill="none" xmlns="http://www.w3.org/2000/svg">
<path d="M24.6667 19.3715H22.0001V7.70483L14.0001 12.7048L6.00008 7.70483V19.3715H3.33341V3.3715H4.93341L14.0001 9.03817L23.0667 3.3715H24.6667M24.6667 0.704834H3.33341C1.85341 0.704834 0.666748 1.8915 0.666748 3.3715V19.3715C0.666748 20.0787 0.947699 20.757 1.4478 21.2571C1.94789 21.7572 2.62617 22.0382 3.33341 22.0382H24.6667C25.374 22.0382 26.0523 21.7572 26.5524 21.2571C27.0525 20.757 27.3334 20.0787 27.3334 19.3715V3.3715C27.3334 2.66426 27.0525 1.98598 26.5524 1.48588C26.0523 0.985785 25.374 0.704834 24.6667 0.704834Z" fill="#6A6F4C"/>
</svg>
