<svg width="133" height="162" viewBox="0 0 133 162" fill="none" xmlns="http://www.w3.org/2000/svg">
<path d="M39.8006 49.9575C37.2463 45.5253 32.3015 33.4595 32.2384 22.0995C32.1333 20.5608 32.1333 19.0168 32.2384 17.4782C32.4737 15.0793 33.1669 7.9373 38.5402 3.55126C38.8595 3.29079 44.1992 -0.935599 50.7237 0.190318C62.4197 2.18168 68.2258 19.6838 69.2089 28.0484C69.5489 31.2729 69.6892 34.5154 69.629 37.7573C69.5517 41.2869 69.2712 44.8091 68.7887 48.3065C67.9485 54.562 66.6881 59.7043 66.6881 59.7043C82.7997 73.043 83.0728 77.0089 96.5166 90.5158C96.9955 89.6125 97.7055 88.2975 98.6171 86.7347C100.47 83.5586 101.617 81.5924 103.238 79.5927C104.574 77.9458 106.7 75.3243 110.38 73.2909C112.926 71.7604 115.815 70.8937 118.783 70.7702C120.358 70.7282 124.883 70.6147 128.446 73.711C131.899 76.7107 132.449 80.9917 132.647 82.5335C133.752 91.1165 124.9 101.678 110.801 109.421C113.321 113.349 115.876 117.55 118.363 122.025C123.33 130.96 127.682 140.224 131.386 149.752C134.747 161.516 118.833 165.528 115.422 157.735C109.462 144.195 102.729 131.01 95.2562 118.244L86.0136 122.865C86.0136 122.865 63.3272 131.687 53.2444 123.285C51.0725 121.868 49.0952 120.173 47.3627 118.244C47.3627 118.244 39.3805 105.64 54.5047 96.3974C62.0668 93.0365 59.9663 93.4566 72.9899 92.1962L58.2858 76.2317C42.712 84.0921 28.5708 87.5749 16.2739 85.4743C-7.6728 82.0756 -9.35328 44.2649 39.8006 49.9575Z" fill="#6A6F4C"/>
</svg>
